<svg width="1200" height="760" viewBox="0 0 1200 760" fill="none" xmlns="http://www.w3.org/2000/svg">
  <rect width="1200" height="760" fill="#faf9f5"/>

  <text x="72" y="88" fill="#141413" font-family="Poppins, Arial, PingFang SC, Hiragino Sans GB, Microsoft YaHei, sans-serif" font-size="38" font-weight="700">
    Direction C Light · 科技字母版
  </text>
  <text x="72" y="124" fill="#b0aea5" font-family="Lora, Georgia, PingFang SC, Hiragino Sans GB, Microsoft YaHei, serif" font-size="22">
    保留 AI 科技感，但去掉黑底，整体更轻更现代
  </text>

  <rect x="56" y="172" width="1088" height="252" rx="32" fill="#fffdf8" stroke="#e8e6dc" stroke-width="2"/>
  <text x="88" y="218" fill="#b0aea5" font-family="Poppins, Arial, PingFang SC, Hiragino Sans GB, Microsoft YaHei, sans-serif" font-size="18" font-weight="600">
    Horizontal Logo
  </text>

  <g transform="translate(88 252)">
    <rect x="0" y="0" width="136" height="136" rx="34" fill="#fffdf8" stroke="#141413" stroke-width="8"/>
    <path d="M30 92V42C30 34.268 36.268 28 44 28H52C56.784 28 61.248 30.442 63.84 34.484L68 40.968L72.16 34.484C74.752 30.442 79.216 28 84 28H92C99.732 28 106 34.268 106 42V92" stroke="#141413" stroke-width="10" stroke-linecap="round" stroke-linejoin="round"/>
    <path d="M38 84H98" stroke="#6a9bcc" stroke-width="8" stroke-linecap="round"/>
    <path d="M34 102L48 90" stroke="#d97757" stroke-width="8" stroke-linecap="round"/>
    <path d="M102 102L88 90" stroke="#788c5d" stroke-width="8" stroke-linecap="round"/>
  </g>

  <g transform="translate(264 272)">
    <text x="0" y="62" fill="#141413" font-family="Poppins, Arial, PingFang SC, Hiragino Sans GB, Microsoft YaHei, sans-serif" font-size="68" font-weight="700" letter-spacing="-1">
      面面吧
    </text>
    <text x="4" y="110" fill="#b0aea5" font-family="Lora, Georgia, PingFang SC, Hiragino Sans GB, Microsoft YaHei, serif" font-size="24">
      AI-native / Light Tech
    </text>
    <rect x="0" y="130" width="260" height="8" rx="4" fill="#e8e6dc"/>
    <rect x="0" y="130" width="84" height="8" rx="4" fill="#6a9bcc"/>
  </g>

  <rect x="56" y="456" width="344" height="236" rx="28" fill="#f3f6fa"/>
  <text x="88" y="502" fill="#141413" font-family="Poppins, Arial, PingFang SC, Hiragino Sans GB, Microsoft YaHei, sans-serif" font-size="18" font-weight="600">
    App Icon
  </text>
  <g transform="translate(134 548)">
    <rect x="0" y="0" width="100" height="100" rx="26" fill="#fffdf8" stroke="#141413" stroke-width="6"/>
    <path d="M22 68V30C22 24.477 26.477 20 32 20H38C41.873 20 45.484 21.997 47.623 25.289L50 28.947L52.377 25.289C54.516 21.997 58.127 20 62 20H68C73.523 20 78 24.477 78 30V68" stroke="#141413" stroke-width="8" stroke-linecap="round" stroke-linejoin="round"/>
    <path d="M28 62H72" stroke="#6a9bcc" stroke-width="7" stroke-linecap="round"/>
    <path d="M24 80L35 70" stroke="#d97757" stroke-width="7" stroke-linecap="round"/>
    <path d="M76 80L65 70" stroke="#788c5d" stroke-width="7" stroke-linecap="round"/>
  </g>

  <rect x="428" y="456" width="344" height="236" rx="28" fill="#fffdf8" stroke="#e8e6dc" stroke-width="2"/>
  <text x="460" y="502" fill="#141413" font-family="Poppins, Arial, PingFang SC, Hiragino Sans GB, Microsoft YaHei, sans-serif" font-size="28" font-weight="700">
    适合
  </text>
  <text x="460" y="552" fill="#141413" font-family="Lora, Georgia, PingFang SC, Hiragino Sans GB, Microsoft YaHei, serif" font-size="22">
    AI 产品首页
  </text>
  <text x="460" y="590" fill="#141413" font-family="Lora, Georgia, PingFang SC, Hiragino Sans GB, Microsoft YaHei, serif" font-size="22">
    导航栏、浅色界面、现代化产品气质
  </text>
  <text x="460" y="628" fill="#141413" font-family="Lora, Georgia, PingFang SC, Hiragino Sans GB, Microsoft YaHei, serif" font-size="22">
    比黑底版更清爽、更轻盈
  </text>

  <rect x="800" y="456" width="344" height="236" rx="28" fill="#fffdf8" stroke="#e8e6dc" stroke-width="2"/>
  <text x="832" y="502" fill="#141413" font-family="Poppins, Arial, PingFang SC, Hiragino Sans GB, Microsoft YaHei, sans-serif" font-size="28" font-weight="700">
    关键词
  </text>
  <text x="832" y="552" fill="#141413" font-family="Lora, Georgia, PingFang SC, Hiragino Sans GB, Microsoft YaHei, serif" font-size="22">
    AI、科技、轻量
  </text>
  <text x="832" y="590" fill="#141413" font-family="Lora, Georgia, PingFang SC, Hiragino Sans GB, Microsoft YaHei, serif" font-size="22">
    现代、清爽、互联网感
  </text>
  <text x="832" y="628" fill="#141413" font-family="Lora, Georgia, PingFang SC, Hiragino Sans GB, Microsoft YaHei, serif" font-size="22">
    更适合浅色 UI 系统
  </text>
</svg>
